<mxfile host="app.diagrams.net" agent="Mozilla/5.0 (Windows NT 10.0; Win64; x64) AppleWebKit/537.36 (KHTML, like Gecko) Chrome/139.0.0.0 Safari/537.36" version="28.1.1">
  <diagram name="Page-1" id="0783ab3e-0a74-02c8-0abd-f7b4e66b4bec">
    <mxGraphModel dx="1634" dy="881" grid="1" gridSize="10" guides="1" tooltips="1" connect="1" arrows="1" fold="1" page="1" pageScale="1" pageWidth="850" pageHeight="1100" background="none" math="0" shadow="0">
      <root>
        <mxCell id="0" />
        <mxCell id="1" parent="0" />
        <mxCell id="1c1d494c118603dd-1" value="Bank Transaction - Activity Diagram" style="swimlane;html=1;childLayout=stackLayout;startSize=20;rounded=0;shadow=0;comic=0;labelBackgroundColor=none;strokeWidth=1;fontFamily=Verdana;fontSize=12;align=center;" parent="1" vertex="1">
          <mxGeometry x="40" y="30" width="750" height="1040" as="geometry" />
        </mxCell>
        <mxCell id="1c1d494c118603dd-2" value="Customer&amp;nbsp;" style="swimlane;html=1;startSize=20;" parent="1c1d494c118603dd-1" vertex="1">
          <mxGeometry y="20" width="250" height="1020" as="geometry">
            <mxRectangle y="20" width="40" height="970" as="alternateBounds" />
          </mxGeometry>
        </mxCell>
        <mxCell id="JUzeEZederDPW-ZyYQMi-4" value="" style="ellipse;html=1;shape=startState;fillColor=#000000;strokeColor=#ff0000;" vertex="1" parent="1c1d494c118603dd-2">
          <mxGeometry x="95" y="40" width="30" height="30" as="geometry" />
        </mxCell>
        <mxCell id="JUzeEZederDPW-ZyYQMi-5" value="" style="edgeStyle=orthogonalEdgeStyle;html=1;verticalAlign=bottom;endArrow=open;endSize=8;rounded=0;" edge="1" source="JUzeEZederDPW-ZyYQMi-4" parent="1c1d494c118603dd-2" target="JUzeEZederDPW-ZyYQMi-13">
          <mxGeometry relative="1" as="geometry">
            <mxPoint x="110" y="110" as="targetPoint" />
          </mxGeometry>
        </mxCell>
        <mxCell id="JUzeEZederDPW-ZyYQMi-13" value="Insert Card" style="rounded=1;whiteSpace=wrap;html=1;arcSize=40;" vertex="1" parent="1c1d494c118603dd-2">
          <mxGeometry x="50" y="110" width="120" height="40" as="geometry" />
        </mxCell>
        <mxCell id="JUzeEZederDPW-ZyYQMi-14" value="" style="edgeStyle=orthogonalEdgeStyle;html=1;verticalAlign=bottom;endArrow=open;endSize=8;strokeColor=#000000;rounded=0;" edge="1" source="JUzeEZederDPW-ZyYQMi-13" parent="1c1d494c118603dd-2" target="JUzeEZederDPW-ZyYQMi-26">
          <mxGeometry relative="1" as="geometry">
            <mxPoint x="110" y="210" as="targetPoint" />
          </mxGeometry>
        </mxCell>
        <mxCell id="JUzeEZederDPW-ZyYQMi-26" value="Enter Pin" style="rounded=1;whiteSpace=wrap;html=1;arcSize=40;fontColor=#000000;fillColor=#ffffc0;strokeColor=#ff0000;" vertex="1" parent="1c1d494c118603dd-2">
          <mxGeometry x="50" y="190" width="120" height="40" as="geometry" />
        </mxCell>
        <mxCell id="JUzeEZederDPW-ZyYQMi-37" value="Enter Amount" style="rounded=1;whiteSpace=wrap;html=1;arcSize=40;fontColor=#000000;fillColor=#ffffc0;strokeColor=#ff0000;" vertex="1" parent="1c1d494c118603dd-2">
          <mxGeometry x="60" y="280" width="120" height="40" as="geometry" />
        </mxCell>
        <mxCell id="JUzeEZederDPW-ZyYQMi-47" value="" style="shape=line;html=1;strokeWidth=6;strokeColor=#ff0000;" vertex="1" parent="1c1d494c118603dd-2">
          <mxGeometry x="55" y="495" width="130" height="10" as="geometry" />
        </mxCell>
        <mxCell id="JUzeEZederDPW-ZyYQMi-48" value="" style="edgeStyle=orthogonalEdgeStyle;html=1;verticalAlign=bottom;endArrow=open;endSize=8;strokeColor=#ff0000;rounded=0;" edge="1" source="JUzeEZederDPW-ZyYQMi-47" parent="1c1d494c118603dd-2" target="JUzeEZederDPW-ZyYQMi-49">
          <mxGeometry relative="1" as="geometry">
            <mxPoint x="120" y="595" as="targetPoint" />
          </mxGeometry>
        </mxCell>
        <mxCell id="JUzeEZederDPW-ZyYQMi-49" value="Take money from slot" style="rounded=1;whiteSpace=wrap;html=1;arcSize=40;fontColor=#000000;fillColor=#ffffc0;strokeColor=#ff0000;" vertex="1" parent="1c1d494c118603dd-2">
          <mxGeometry x="60" y="530" width="120" height="40" as="geometry" />
        </mxCell>
        <mxCell id="JUzeEZederDPW-ZyYQMi-68" value="Take Card" style="rounded=1;whiteSpace=wrap;html=1;arcSize=40;fontColor=#000000;fillColor=#ffffc0;strokeColor=#ff0000;" vertex="1" parent="1c1d494c118603dd-2">
          <mxGeometry x="30" y="880" width="120" height="40" as="geometry" />
        </mxCell>
        <mxCell id="JUzeEZederDPW-ZyYQMi-69" value="" style="edgeStyle=orthogonalEdgeStyle;html=1;verticalAlign=bottom;endArrow=open;endSize=8;strokeColor=#ff0000;rounded=0;" edge="1" source="JUzeEZederDPW-ZyYQMi-68" parent="1c1d494c118603dd-2" target="JUzeEZederDPW-ZyYQMi-70">
          <mxGeometry relative="1" as="geometry">
            <mxPoint x="90" y="980" as="targetPoint" />
          </mxGeometry>
        </mxCell>
        <mxCell id="JUzeEZederDPW-ZyYQMi-70" value="" style="ellipse;html=1;shape=endState;fillColor=#000000;strokeColor=#ff0000;" vertex="1" parent="1c1d494c118603dd-2">
          <mxGeometry x="75" y="950" width="30" height="30" as="geometry" />
        </mxCell>
        <mxCell id="JUzeEZederDPW-ZyYQMi-71" value="End" style="text;align=center;fontStyle=1;verticalAlign=middle;spacingLeft=3;spacingRight=3;strokeColor=none;rotatable=0;points=[[0,0.5],[1,0.5]];portConstraint=eastwest;html=1;" vertex="1" parent="1c1d494c118603dd-2">
          <mxGeometry x="150" y="954" width="80" height="26" as="geometry" />
        </mxCell>
        <mxCell id="JUzeEZederDPW-ZyYQMi-73" value="" style="endArrow=open;endFill=1;endSize=12;html=1;rounded=0;entryX=1;entryY=0.5;entryDx=0;entryDy=0;strokeColor=#FF2727;" edge="1" parent="1c1d494c118603dd-2" source="JUzeEZederDPW-ZyYQMi-71" target="JUzeEZederDPW-ZyYQMi-70">
          <mxGeometry width="160" relative="1" as="geometry">
            <mxPoint x="260" y="880" as="sourcePoint" />
            <mxPoint x="420" y="880" as="targetPoint" />
          </mxGeometry>
        </mxCell>
        <mxCell id="1c1d494c118603dd-3" value="ATM Transaction" style="swimlane;html=1;startSize=20;" parent="1c1d494c118603dd-1" vertex="1">
          <mxGeometry x="250" y="20" width="250" height="1020" as="geometry" />
        </mxCell>
        <mxCell id="JUzeEZederDPW-ZyYQMi-56" value="" style="shape=line;html=1;strokeWidth=6;strokeColor=#ff0000;" vertex="1" parent="1c1d494c118603dd-3">
          <mxGeometry x="60" y="580" width="130" height="10" as="geometry" />
        </mxCell>
        <mxCell id="JUzeEZederDPW-ZyYQMi-60" value="Show Balance" style="rounded=1;whiteSpace=wrap;html=1;arcSize=40;fontColor=#000000;fillColor=#ffffc0;strokeColor=#ff0000;" vertex="1" parent="1c1d494c118603dd-3">
          <mxGeometry x="65.00000000000001" y="700" width="120" height="40" as="geometry" />
        </mxCell>
        <mxCell id="JUzeEZederDPW-ZyYQMi-61" value="" style="html=1;whiteSpace=wrap;aspect=fixed;shape=isoRectangle;" vertex="1" parent="1c1d494c118603dd-3">
          <mxGeometry x="80" y="770" width="83.33" height="50" as="geometry" />
        </mxCell>
        <mxCell id="JUzeEZederDPW-ZyYQMi-63" value="" style="edgeStyle=orthogonalEdgeStyle;html=1;verticalAlign=bottom;endArrow=open;endSize=8;strokeColor=#ff0000;rounded=0;exitX=0.461;exitY=0.921;exitDx=0;exitDy=0;exitPerimeter=0;" edge="1" parent="1c1d494c118603dd-3" source="JUzeEZederDPW-ZyYQMi-60" target="JUzeEZederDPW-ZyYQMi-61">
          <mxGeometry relative="1" as="geometry">
            <mxPoint x="180" y="840" as="targetPoint" />
            <mxPoint x="203" y="780" as="sourcePoint" />
          </mxGeometry>
        </mxCell>
        <mxCell id="JUzeEZederDPW-ZyYQMi-64" value="join" style="text;align=center;fontStyle=1;verticalAlign=middle;spacingLeft=3;spacingRight=3;strokeColor=none;rotatable=0;points=[[0,0.5],[1,0.5]];portConstraint=eastwest;html=1;" vertex="1" parent="1c1d494c118603dd-3">
          <mxGeometry x="150" y="554" width="80" height="26" as="geometry" />
        </mxCell>
        <mxCell id="JUzeEZederDPW-ZyYQMi-65" value="Merge" style="text;align=center;fontStyle=1;verticalAlign=middle;spacingLeft=3;spacingRight=3;strokeColor=none;rotatable=0;points=[[0,0.5],[1,0.5]];portConstraint=eastwest;html=1;" vertex="1" parent="1c1d494c118603dd-3">
          <mxGeometry x="30" y="760" width="80" height="26" as="geometry" />
        </mxCell>
        <mxCell id="JUzeEZederDPW-ZyYQMi-58" value="" style="html=1;whiteSpace=wrap;aspect=fixed;shape=isoRectangle;" vertex="1" parent="1c1d494c118603dd-3">
          <mxGeometry x="83.33999999999999" y="620" width="83.33" height="50" as="geometry" />
        </mxCell>
        <mxCell id="JUzeEZederDPW-ZyYQMi-59" value="" style="edgeStyle=orthogonalEdgeStyle;html=1;verticalAlign=bottom;endArrow=open;endSize=8;strokeColor=#ff0000;rounded=0;" edge="1" parent="1c1d494c118603dd-3" source="JUzeEZederDPW-ZyYQMi-56" target="JUzeEZederDPW-ZyYQMi-58">
          <mxGeometry relative="1" as="geometry">
            <mxPoint x="640" y="780" as="targetPoint" />
            <mxPoint x="665" y="690" as="sourcePoint" />
          </mxGeometry>
        </mxCell>
        <mxCell id="JUzeEZederDPW-ZyYQMi-54" value="" style="edgeStyle=orthogonalEdgeStyle;html=1;verticalAlign=bottom;endArrow=open;endSize=8;strokeColor=#ff0000;rounded=0;" edge="1" source="JUzeEZederDPW-ZyYQMi-58" parent="1c1d494c118603dd-3" target="JUzeEZederDPW-ZyYQMi-60">
          <mxGeometry relative="1" as="geometry">
            <mxPoint x="100" y="730" as="targetPoint" />
          </mxGeometry>
        </mxCell>
        <mxCell id="JUzeEZederDPW-ZyYQMi-66" value="Eject Card" style="rounded=1;whiteSpace=wrap;html=1;arcSize=40;fontColor=#000000;fillColor=#ffffc0;strokeColor=#ff0000;" vertex="1" parent="1c1d494c118603dd-3">
          <mxGeometry x="62" y="840" width="120" height="40" as="geometry" />
        </mxCell>
        <mxCell id="JUzeEZederDPW-ZyYQMi-72" value="" style="endArrow=open;endFill=1;endSize=12;html=1;rounded=0;exitX=0.464;exitY=1.02;exitDx=0;exitDy=0;exitPerimeter=0;" edge="1" parent="1c1d494c118603dd-3" source="JUzeEZederDPW-ZyYQMi-61" target="JUzeEZederDPW-ZyYQMi-66">
          <mxGeometry width="160" relative="1" as="geometry">
            <mxPoint x="10" y="880" as="sourcePoint" />
            <mxPoint x="170" y="880" as="targetPoint" />
          </mxGeometry>
        </mxCell>
        <mxCell id="JUzeEZederDPW-ZyYQMi-27" value="" style="edgeStyle=orthogonalEdgeStyle;html=1;verticalAlign=bottom;endArrow=open;endSize=8;strokeColor=#ff0000;rounded=0;" edge="1" source="JUzeEZederDPW-ZyYQMi-26" parent="1c1d494c118603dd-1" target="JUzeEZederDPW-ZyYQMi-28">
          <mxGeometry relative="1" as="geometry">
            <mxPoint x="590" y="230" as="targetPoint" />
          </mxGeometry>
        </mxCell>
        <mxCell id="JUzeEZederDPW-ZyYQMi-33" value="" style="endArrow=open;endFill=1;endSize=12;html=1;rounded=0;exitX=0.023;exitY=0.503;exitDx=0;exitDy=0;exitPerimeter=0;" edge="1" parent="1c1d494c118603dd-1" source="JUzeEZederDPW-ZyYQMi-30" target="JUzeEZederDPW-ZyYQMi-37">
          <mxGeometry width="160" relative="1" as="geometry">
            <mxPoint x="260" y="210" as="sourcePoint" />
            <mxPoint x="160" y="315" as="targetPoint" />
          </mxGeometry>
        </mxCell>
        <mxCell id="JUzeEZederDPW-ZyYQMi-38" value="" style="edgeStyle=orthogonalEdgeStyle;html=1;verticalAlign=bottom;endArrow=open;endSize=8;strokeColor=#ff0000;rounded=0;" edge="1" source="JUzeEZederDPW-ZyYQMi-37" parent="1c1d494c118603dd-1" target="JUzeEZederDPW-ZyYQMi-39">
          <mxGeometry relative="1" as="geometry">
            <mxPoint x="570" y="400" as="targetPoint" />
            <Array as="points">
              <mxPoint x="120" y="400" />
            </Array>
          </mxGeometry>
        </mxCell>
        <mxCell id="JUzeEZederDPW-ZyYQMi-44" value="" style="endArrow=open;endFill=1;endSize=12;html=1;rounded=0;exitX=0.024;exitY=0.503;exitDx=0;exitDy=0;exitPerimeter=0;" edge="1" parent="1c1d494c118603dd-1" source="JUzeEZederDPW-ZyYQMi-41" target="JUzeEZederDPW-ZyYQMi-47">
          <mxGeometry width="160" relative="1" as="geometry">
            <mxPoint x="595" y="485" as="sourcePoint" />
            <mxPoint x="120" y="540" as="targetPoint" />
            <Array as="points">
              <mxPoint x="120" y="485" />
            </Array>
          </mxGeometry>
        </mxCell>
        <mxCell id="1c1d494c118603dd-4" value="Bank" style="swimlane;html=1;startSize=20;" parent="1c1d494c118603dd-1" vertex="1">
          <mxGeometry x="500" y="20" width="250" height="1020" as="geometry" />
        </mxCell>
        <mxCell id="JUzeEZederDPW-ZyYQMi-28" value="Authorize" style="rounded=1;whiteSpace=wrap;html=1;arcSize=40;fontColor=#000000;fillColor=#ffffc0;strokeColor=#ff0000;" vertex="1" parent="1c1d494c118603dd-4">
          <mxGeometry x="80" y="190" width="120" height="40" as="geometry" />
        </mxCell>
        <mxCell id="JUzeEZederDPW-ZyYQMi-29" value="" style="edgeStyle=orthogonalEdgeStyle;html=1;verticalAlign=bottom;endArrow=open;endSize=8;strokeColor=#ff0000;rounded=0;" edge="1" source="JUzeEZederDPW-ZyYQMi-28" parent="1c1d494c118603dd-4" target="JUzeEZederDPW-ZyYQMi-30">
          <mxGeometry relative="1" as="geometry">
            <mxPoint x="140" y="290" as="targetPoint" />
          </mxGeometry>
        </mxCell>
        <mxCell id="JUzeEZederDPW-ZyYQMi-30" value="" style="html=1;whiteSpace=wrap;aspect=fixed;shape=isoRectangle;" vertex="1" parent="1c1d494c118603dd-4">
          <mxGeometry x="98.33" y="270" width="83.33" height="50" as="geometry" />
        </mxCell>
        <mxCell id="JUzeEZederDPW-ZyYQMi-34" value="[valid pin]" style="text;align=center;fontStyle=1;verticalAlign=middle;spacingLeft=3;spacingRight=3;strokeColor=none;rotatable=0;points=[[0,0.5],[1,0.5]];portConstraint=eastwest;html=1;" vertex="1" parent="1c1d494c118603dd-4">
          <mxGeometry x="18.33" y="270" width="80" height="26" as="geometry" />
        </mxCell>
        <mxCell id="JUzeEZederDPW-ZyYQMi-35" value="[invalid pin]" style="text;align=center;fontStyle=1;verticalAlign=middle;spacingLeft=3;spacingRight=3;strokeColor=none;rotatable=0;points=[[0,0.5],[1,0.5]];portConstraint=eastwest;html=1;" vertex="1" parent="1c1d494c118603dd-4">
          <mxGeometry x="160" y="260" width="80" height="26" as="geometry" />
        </mxCell>
        <mxCell id="JUzeEZederDPW-ZyYQMi-39" value="Check Account Balance" style="rounded=1;whiteSpace=wrap;html=1;arcSize=40;fontColor=#000000;fillColor=#ffffc0;strokeColor=#ff0000;" vertex="1" parent="1c1d494c118603dd-4">
          <mxGeometry x="79.99" y="360" width="120" height="40" as="geometry" />
        </mxCell>
        <mxCell id="JUzeEZederDPW-ZyYQMi-40" value="" style="edgeStyle=orthogonalEdgeStyle;html=1;verticalAlign=bottom;endArrow=open;endSize=8;strokeColor=#ff0000;rounded=0;" edge="1" source="JUzeEZederDPW-ZyYQMi-39" parent="1c1d494c118603dd-4" target="JUzeEZederDPW-ZyYQMi-41">
          <mxGeometry relative="1" as="geometry">
            <mxPoint x="139.99" y="460" as="targetPoint" />
          </mxGeometry>
        </mxCell>
        <mxCell id="JUzeEZederDPW-ZyYQMi-41" value="" style="html=1;whiteSpace=wrap;aspect=fixed;shape=isoRectangle;" vertex="1" parent="1c1d494c118603dd-4">
          <mxGeometry x="98.34000000000003" y="440" width="83.33" height="50" as="geometry" />
        </mxCell>
        <mxCell id="JUzeEZederDPW-ZyYQMi-43" value="[Balance &amp;gt;= amount]" style="text;align=center;fontStyle=1;verticalAlign=middle;spacingLeft=3;spacingRight=3;strokeColor=none;rotatable=0;points=[[0,0.5],[1,0.5]];portConstraint=eastwest;html=1;" vertex="1" parent="1c1d494c118603dd-4">
          <mxGeometry x="4.085620730620576e-14" y="440" width="80" height="26" as="geometry" />
        </mxCell>
        <mxCell id="JUzeEZederDPW-ZyYQMi-45" value="[Balance &amp;lt; amount]" style="text;align=center;fontStyle=1;verticalAlign=middle;spacingLeft=3;spacingRight=3;strokeColor=none;rotatable=0;points=[[0,0.5],[1,0.5]];portConstraint=eastwest;html=1;" vertex="1" parent="1c1d494c118603dd-4">
          <mxGeometry x="150" y="440" width="80" height="26" as="geometry" />
        </mxCell>
        <mxCell id="JUzeEZederDPW-ZyYQMi-53" value="debit account" style="rounded=1;whiteSpace=wrap;html=1;arcSize=40;fontColor=#000000;fillColor=#ffffc0;strokeColor=#ff0000;" vertex="1" parent="1c1d494c118603dd-4">
          <mxGeometry x="40" y="500" width="120" height="40" as="geometry" />
        </mxCell>
        <mxCell id="JUzeEZederDPW-ZyYQMi-55" value="" style="endArrow=open;endFill=1;endSize=12;html=1;rounded=0;exitX=1;exitY=0.5;exitDx=0;exitDy=0;exitPerimeter=0;entryX=0;entryY=0.25;entryDx=0;entryDy=0;" edge="1" parent="1c1d494c118603dd-1" source="JUzeEZederDPW-ZyYQMi-47" target="JUzeEZederDPW-ZyYQMi-53">
          <mxGeometry width="160" relative="1" as="geometry">
            <mxPoint x="310" y="470" as="sourcePoint" />
            <mxPoint x="510" y="600" as="targetPoint" />
            <Array as="points">
              <mxPoint x="510" y="520" />
              <mxPoint x="510" y="530" />
            </Array>
          </mxGeometry>
        </mxCell>
        <mxCell id="JUzeEZederDPW-ZyYQMi-57" value="" style="edgeStyle=orthogonalEdgeStyle;html=1;verticalAlign=bottom;endArrow=open;endSize=8;strokeColor=#ff0000;rounded=0;" edge="1" parent="1c1d494c118603dd-1" source="JUzeEZederDPW-ZyYQMi-53" target="JUzeEZederDPW-ZyYQMi-56">
          <mxGeometry relative="1" as="geometry">
            <mxPoint x="890" y="710" as="targetPoint" />
            <mxPoint x="1080" y="660" as="sourcePoint" />
          </mxGeometry>
        </mxCell>
        <mxCell id="JUzeEZederDPW-ZyYQMi-50" value="" style="edgeStyle=orthogonalEdgeStyle;html=1;verticalAlign=bottom;endArrow=open;endSize=8;strokeColor=#ff0000;rounded=0;entryX=0.376;entryY=0.135;entryDx=0;entryDy=0;entryPerimeter=0;" edge="1" source="JUzeEZederDPW-ZyYQMi-49" parent="1c1d494c118603dd-1" target="JUzeEZederDPW-ZyYQMi-56">
          <mxGeometry relative="1" as="geometry">
            <mxPoint x="320" y="660" as="targetPoint" />
          </mxGeometry>
        </mxCell>
        <mxCell id="JUzeEZederDPW-ZyYQMi-36" value="" style="endArrow=open;endFill=1;endSize=12;html=1;rounded=0;exitX=0.942;exitY=0.491;exitDx=0;exitDy=0;exitPerimeter=0;entryX=0.994;entryY=0.503;entryDx=0;entryDy=0;entryPerimeter=0;" edge="1" parent="1c1d494c118603dd-1" source="JUzeEZederDPW-ZyYQMi-30" target="JUzeEZederDPW-ZyYQMi-61">
          <mxGeometry width="160" relative="1" as="geometry">
            <mxPoint x="660" y="370" as="sourcePoint" />
            <mxPoint x="730" y="960" as="targetPoint" />
            <Array as="points">
              <mxPoint x="740" y="317" />
              <mxPoint x="740" y="820" />
            </Array>
          </mxGeometry>
        </mxCell>
        <mxCell id="JUzeEZederDPW-ZyYQMi-46" value="" style="endArrow=open;endFill=1;endSize=12;html=1;rounded=0;exitX=0.987;exitY=0.508;exitDx=0;exitDy=0;exitPerimeter=0;" edge="1" parent="1c1d494c118603dd-1" source="JUzeEZederDPW-ZyYQMi-41" target="JUzeEZederDPW-ZyYQMi-58">
          <mxGeometry width="160" relative="1" as="geometry">
            <mxPoint x="657" y="525" as="sourcePoint" />
            <mxPoint x="720" y="790" as="targetPoint" />
            <Array as="points">
              <mxPoint x="720" y="485" />
              <mxPoint x="720" y="665" />
            </Array>
          </mxGeometry>
        </mxCell>
        <mxCell id="JUzeEZederDPW-ZyYQMi-67" value="" style="edgeStyle=orthogonalEdgeStyle;html=1;verticalAlign=bottom;endArrow=open;endSize=8;strokeColor=#ff0000;rounded=0;" edge="1" source="JUzeEZederDPW-ZyYQMi-66" parent="1c1d494c118603dd-1" target="JUzeEZederDPW-ZyYQMi-68">
          <mxGeometry relative="1" as="geometry">
            <mxPoint x="90" y="900" as="targetPoint" />
            <Array as="points">
              <mxPoint x="90" y="880" />
            </Array>
          </mxGeometry>
        </mxCell>
      </root>
    </mxGraphModel>
  </diagram>
</mxfile>
